<?xml version="1.0" encoding="UTF-8"?>
<svg width="15px" height="23px" viewBox="0 0 15 23" version="1.1" xmlns="http://www.w3.org/2000/svg" xmlns:xlink="http://www.w3.org/1999/xlink">
    <!-- Generator: Sketch 53.2 (72643) - https://sketchapp.com -->
    <title>icon_loading01</title>
    <desc>Created with Sketch.</desc>
    <g id="Symbols" stroke="none" stroke-width="1" fill="none" fill-rule="evenodd">
        <g id="palette/loding" transform="translate(-42.000000, -30.000000)">
            <g id="Group" transform="translate(27.000000, 30.000000)">
                <g id="icon_loading01" transform="translate(15.000000, 0.000000)">
                    <path d="M14.4992474,17.5854515 C14.190122,16.0974212 13.3263672,14.767603 12.0674109,13.8455121 L10.0008365,12.3316939 C9.45818294,11.9337242 9.45818294,11.1503303 10.0008365,10.7523606 L12.0674109,9.23854242 C13.3263672,8.31645152 14.190122,6.98663333 14.4992474,5.49860303 L14.9490885,3.32893636 C15.2529745,1.86251212 14.1654219,0.466481818 12.610813,0.327087879 L9.52404985,0.124966667 C8.9140324,0.0706030303 6.40435325,0.0706030303 5.7943358,0.124966667 L2.38871691,0.327087879 C0.834856507,0.466481818 -0.252696076,1.86251212 0.0511899177,3.32893636 L0.501031006,5.49860303 C0.809407926,6.98663333 1.67391118,8.31645152 2.93211895,9.23854242 L4.99944189,10.7523606 C5.54209545,11.1503303 5.54209545,11.9337242 4.99944189,12.3316939 L2.93211895,13.8462091 C1.67391118,14.767603 0.809407926,16.0974212 0.501031006,17.5854515 L0.0511899177,19.7551182 C-0.252696076,21.2222394 0.834856507,22.6182697 2.38871691,22.7569667 L5.47622854,22.9590879 C6.08624599,23.0134515 8.59592514,23.0134515 9.20594259,22.9590879 L12.610813,22.7569667 C14.1654219,22.6182697 15.2529745,21.2222394 14.9490885,19.7551182 L14.4992474,17.5854515 Z" id="Fill-1" fill="#C9C9C9"></path>
                    <path d="M12.6932982,5.39829069 C12.9290967,5.431331 13.0561236,5.62337781 12.9762563,5.82437303 C12.9762563,5.82437303 12.9290967,5.95928763 12.8621603,6.08387713 C12.277228,7.16870066 11.5903699,7.80197328 10.4319149,8.55914706 C8.59116564,9.79953539 7.87464258,9.05750508 7.93245123,10.609023 C7.92408419,10.7769779 7.93245123,10.613153 7.93245123,10.613153 C7.93245123,10.8265384 7.74000926,11 7.49964696,11 C7.26080594,11 7.07140654,10.8224083 7.06760333,10.613153 C7.06760333,10.613153 7.07597038,10.7769779 7.06760333,10.609023 C7.12541199,9.05750508 6.40888893,9.79953539 4.56737902,8.55914706 C3.40968465,7.80197328 2.72282656,7.16870066 2.13789425,6.08387713 C2.07095792,5.95928763 2.02379822,5.82437303 2.02379822,5.82437303 C1.943931,5.62200113 2.07323984,5.43064266 2.30675638,5.39829069 L3.51997748,5.2289591 C5.71822763,4.92333623 9.28639077,4.92402457 11.4793164,5.2289591 L12.6932982,5.39829069 Z" id="Fill-4" fill="#FFFFFF"></path>
                    <path d="M9,14.5 C9,15.329064 8.32758621,16 7.5,16 C6.67241379,16 6,15.329064 6,14.5 C6,13.670936 6.67241379,13 7.5,13 C8.32758621,13 9,13.670936 9,14.5" id="Fill-6" fill="#FFFFFF"></path>
                </g>
            </g>
        </g>
    </g>
</svg>